HIERARCHY
ROOT Hips
{
  OFFSET -1.06218 88.2488 0.621538
  CHANNELS 6 Xposition Yposition Zposition Zrotation Xrotation Yrotation
  JOINT Spine
  {
    OFFSET 0 10.1816 0.1315
    CHANNELS 6 Xposition Yposition Zposition Zrotation Xrotation Yrotation
    JOINT Spine1
    {
      OFFSET 0 10.0835 -1.0008
      CHANNELS 6 Xposition Yposition Zposition Zrotation Xrotation Yrotation
      JOINT Spine2
      {
        OFFSET 0 9.1 -1.3734
        CHANNELS 6 Xposition Yposition Zposition Zrotation Xrotation Yrotation
        JOINT Neck
        {
          OFFSET 0 16.6717 -2.5162
          CHANNELS 6 Xposition Yposition Zposition Zrotation Xrotation Yrotation
          JOINT Head
          {
            OFFSET 0 9.6179 1.685
            CHANNELS 6 Xposition Yposition Zposition Zrotation Xrotation Yrotation
            JOINT HeadTop_End
            {
              OFFSET 0 17.8152 2.585
              CHANNELS 6 Xposition Yposition Zposition Zrotation Xrotation Yrotation
              End Site
              {
                OFFSET 0 0 0
              }
            }
            JOINT LeftEye
            {
              OFFSET 3.0676 6.4095 9.2836
              CHANNELS 6 Xposition Yposition Zposition Zrotation Xrotation Yrotation
              End Site
              {
                OFFSET 0 0 0
              }
            }
            JOINT RightEye
            {
              OFFSET -3.0676 6.4095 9.2835
              CHANNELS 6 Xposition Yposition Zposition Zrotation Xrotation Yrotation
              End Site
              {
                OFFSET 0 0 0
              }
            }
          }
        }
        JOINT LeftShoulder
        {
          OFFSET 4.5704 10.946 -2.628
          CHANNELS 6 Xposition Yposition Zposition Zrotation Xrotation Yrotation
          JOINT LeftArm
          {
            OFFSET 10.5924 -0.5246 -2.2321
            CHANNELS 6 Xposition Yposition Zposition Zrotation Xrotation Yrotation
            JOINT LeftForeArm
            {
              OFFSET 27.8415 -0.0001 0
              CHANNELS 6 Xposition Yposition Zposition Zrotation Xrotation Yrotation
              JOINT LeftHand
              {
                OFFSET 28.3288 0 0
                CHANNELS 6 Xposition Yposition Zposition Zrotation Xrotation Yrotation
                JOINT LeftHandThumb1
                {
                  OFFSET 2.4661 -1.575 2.6824
                  CHANNELS 6 Xposition Yposition Zposition Zrotation Xrotation Yrotation
                  JOINT LeftHandThumb2
                  {
                    OFFSET 3.2298 -1.8647 1.8647
                    CHANNELS 6 Xposition Yposition Zposition Zrotation Xrotation Yrotation
                    JOINT LeftHandThumb3
                    {
                      OFFSET 2.6526 -1.5315 1.5315
                      CHANNELS 6 Xposition Yposition Zposition Zrotation Xrotation Yrotation
                      End Site
                      {
                        OFFSET 1.9546 -1.1285 1.1285
                      }
                    }
                  }
                }
                JOINT LeftHandIndex1
                {
                  OFFSET 9.1093 -0.5171 2.2601
                  CHANNELS 6 Xposition Yposition Zposition Zrotation Xrotation Yrotation
                  JOINT LeftHandIndex2
                  {
                    OFFSET 3.6764 0 0
                    CHANNELS 6 Xposition Yposition Zposition Zrotation Xrotation Yrotation
                    JOINT LeftHandIndex3
                    {
                      OFFSET 2.8831 0 0
                      CHANNELS 6 Xposition Yposition Zposition Zrotation Xrotation Yrotation
                      End Site
                      {
                        OFFSET 2.3927 0 0
                      }
                    }
                  }
                }
                JOINT LeftHandMiddle1
                {
                  OFFSET 9.5334 0 0
                  CHANNELS 6 Xposition Yposition Zposition Zrotation Xrotation Yrotation
                  JOINT LeftHandMiddle2
                  {
                    OFFSET 3.6982 0 0
                    CHANNELS 6 Xposition Yposition Zposition Zrotation Xrotation Yrotation
                    JOINT LeftHandMiddle3
                    {
                      OFFSET 2.9509 0 0
                      CHANNELS 6 Xposition Yposition Zposition Zrotation Xrotation Yrotation
                      End Site
                      {
                        OFFSET 2.8339 0 0
                      }
                    }
                  }
                }
                JOINT LeftHandRing1
                {
                  OFFSET 9.1045 -0.0439 -1.8651
                  CHANNELS 6 Xposition Yposition Zposition Zrotation Xrotation Yrotation
                  JOINT LeftHandRing2
                  {
                    OFFSET 3.154 0 0
                    CHANNELS 6 Xposition Yposition Zposition Zrotation Xrotation Yrotation
                    JOINT LeftHandRing3
                    {
                      OFFSET 2.9377 0 0
                      CHANNELS 6 Xposition Yposition Zposition Zrotation Xrotation Yrotation
                      End Site
                      {
                        OFFSET 2.6475 0 0
                      }
                    }
                  }
                }
                JOINT LeftHandPinky1
                {
                  OFFSET 8.0778 -0.4887 -3.8061
                  CHANNELS 6 Xposition Yposition Zposition Zrotation Xrotation Yrotation
                  JOINT LeftHandPinky2
                  {
                    OFFSET 3.6 0 0
                    CHANNELS 6 Xposition Yposition Zposition Zrotation Xrotation Yrotation
                    JOINT LeftHandPinky3
                    {
                      OFFSET 2.1142 0 0
                      CHANNELS 6 Xposition Yposition Zposition Zrotation Xrotation Yrotation
                      End Site
                      {
                        OFFSET 1.9757 0 0
                      }
                    }
                  }
                }
              }
            }
          }
        }
        JOINT RightShoulder
        {
          OFFSET -4.57 10.9462 -2.628
          CHANNELS 6 Xposition Yposition Zposition Zrotation Xrotation Yrotation
          JOINT RightArm
          {
            OFFSET -10.5928 -0.5248 -2.2321
            CHANNELS 6 Xposition Yposition Zposition Zrotation Xrotation Yrotation
            JOINT RightForeArm
            {
              OFFSET -27.8415 0 0
              CHANNELS 6 Xposition Yposition Zposition Zrotation Xrotation Yrotation
              JOINT RightHand
              {
                OFFSET -28.3288 0 0.0001
                CHANNELS 6 Xposition Yposition Zposition Zrotation Xrotation Yrotation
                JOINT RightHandPinky1
                {
                  OFFSET -8.0767 -0.4885 -3.806
                  CHANNELS 6 Xposition Yposition Zposition Zrotation Xrotation Yrotation
                  JOINT RightHandPinky2
                  {
                    OFFSET -3.6 0 0.0001
                    CHANNELS 6 Xposition Yposition Zposition Zrotation Xrotation Yrotation
                    JOINT RightHandPinky3
                    {
                      OFFSET -2.1142 0 0
                      CHANNELS 6 Xposition Yposition Zposition Zrotation Xrotation Yrotation
                      End Site
                      {
                        OFFSET -1.9757 0 0
                      }
                    }
                  }
                }
                JOINT RightHandRing1
                {
                  OFFSET -9.1036 -0.0439 -1.8651
                  CHANNELS 6 Xposition Yposition Zposition Zrotation Xrotation Yrotation
                  JOINT RightHandRing2
                  {
                    OFFSET -3.154 0 0
                    CHANNELS 6 Xposition Yposition Zposition Zrotation Xrotation Yrotation
                    JOINT RightHandRing3
                    {
                      OFFSET -2.9377 0 0
                      CHANNELS 6 Xposition Yposition Zposition Zrotation Xrotation Yrotation
                      End Site
                      {
                        OFFSET -2.6475 0 0
                      }
                    }
                  }
                }
                JOINT RightHandMiddle1
                {
                  OFFSET -9.5325 0 0
                  CHANNELS 6 Xposition Yposition Zposition Zrotation Xrotation Yrotation
                  JOINT RightHandMiddle2
                  {
                    OFFSET -3.6982 0 0
                    CHANNELS 6 Xposition Yposition Zposition Zrotation Xrotation Yrotation
                    JOINT RightHandMiddle3
                    {
                      OFFSET -2.9509 0 0
                      CHANNELS 6 Xposition Yposition Zposition Zrotation Xrotation Yrotation
                      End Site
                      {
                        OFFSET -2.8339 0 0.0001
                      }
                    }
                  }
                }
                JOINT RightHandIndex1
                {
                  OFFSET -9.1083 -0.5168 2.2601
                  CHANNELS 6 Xposition Yposition Zposition Zrotation Xrotation Yrotation
                  JOINT RightHandIndex2
                  {
                    OFFSET -3.6764 0 0
                    CHANNELS 6 Xposition Yposition Zposition Zrotation Xrotation Yrotation
                    JOINT RightHandIndex3
                    {
                      OFFSET -2.8831 0 0
                      CHANNELS 6 Xposition Yposition Zposition Zrotation Xrotation Yrotation
                      End Site
                      {
                        OFFSET -2.3927 0 0
                      }
                    }
                  }
                }
                JOINT RightHandThumb1
                {
                  OFFSET -2.4648 -1.5727 2.6826
                  CHANNELS 6 Xposition Yposition Zposition Zrotation Xrotation Yrotation
                  JOINT RightHandThumb2
                  {
                    OFFSET -3.2298 -1.8647 1.8647
                    CHANNELS 6 Xposition Yposition Zposition Zrotation Xrotation Yrotation
                    JOINT RightHandThumb3
                    {
                      OFFSET -2.6526 -1.5314 1.5314
                      CHANNELS 6 Xposition Yposition Zposition Zrotation Xrotation Yrotation
                      End Site
                      {
                        OFFSET -1.9546 -1.1285 1.1285
                      }
                    }
                  }
                }
              }
            }
          }
        }
      }
    }
  }
  JOINT LeftUpLeg
  {
    OFFSET 8.2078 -6.7517 -1.5996
    CHANNELS 6 Xposition Yposition Zposition Zrotation Xrotation Yrotation
    JOINT LeftLeg
    {
      OFFSET 0 -44.3705 0.2846
      CHANNELS 6 Xposition Yposition Zposition Zrotation Xrotation Yrotation
      JOINT LeftFoot
      {
        OFFSET 0 -44.4279 -2.9822
        CHANNELS 6 Xposition Yposition Zposition Zrotation Xrotation Yrotation
        JOINT LeftToeBase
        {
          OFFSET 0 -8.7287 10.7106
          CHANNELS 6 Xposition Yposition Zposition Zrotation Xrotation Yrotation
          End Site
          {
            OFFSET 0 -0.0007 9.2781
          }
        }
      }
    }
  }
  JOINT RightUpLeg
  {
    OFFSET -8.2078 -6.7517 -1.5996
    CHANNELS 6 Xposition Yposition Zposition Zrotation Xrotation Yrotation
    JOINT RightLeg
    {
      OFFSET 0 -44.3705 0.2862
      CHANNELS 6 Xposition Yposition Zposition Zrotation Xrotation Yrotation
      JOINT RightFoot
      {
        OFFSET 0 -44.4277 -2.9838
        CHANNELS 6 Xposition Yposition Zposition Zrotation Xrotation Yrotation
        JOINT RightToeBase
        {
          OFFSET 0 -8.7287 10.7106
          CHANNELS 6 Xposition Yposition Zposition Zrotation Xrotation Yrotation
          End Site
          {
            OFFSET 0 -0.0007 9.2781
          }
        }
      }
    }
  }
}
MOTION
Frames:	4
Frame Time:	0.0333333
-10.4059 81.9121 -94.3326 9.75322 -0.412442 -30.1719 0 10.1816 0.1315 6.52526 12.3517 0.204904 0 10.0835 -1.0008 1.68153 2.32939 0.1973 3.55271e-015 9.1 -1.3734 1.67639 2.32962 0.230869 -3.55271e-015 16.6717 -2.5162 0.951538 3.44693 2.21705 7.10543e-015 9.6179 1.685 -19.4881 -16.3891 17.1447 0 17.8152 2.585 4.96962e-016 7.95139e-016 -7.95139e-016 3.0676 6.4095 9.2836 4.96962e-016 7.95139e-016 -7.95139e-016 -3.0676 6.4095 9.2835 4.96962e-016 7.95139e-016 -7.95139e-016 4.5704 10.946 -2.628 -8.76236 3.8333 -19.8185 10.5924 -0.5246 -2.2321 -34.4587 9.88342 -9.41023 27.8415 -0.0001 0 -0.000209114 2.29165e-006 -44.3021 28.3288 -1.42109e-014 4.44089e-016 4.56537 -20.8886 -11.4231 2.4661 -1.575 2.6824 -6.63196 -4.74548 -12.3323 3.2298 -1.8647 1.8647 2.55316 12.2142 42.1049 2.6526 -1.5315 1.5315 27.259 3.36613 7.40136 9.1093 -0.5171 2.2601 -45.759 -2.23587 2.52046 3.6764 -7.10543e-015 -3.55271e-015 -87.4947 -5.59999 5.84994 2.8831 1.42109e-014 3.55271e-015 -50.6978 -2.14594 4.52794 9.5334 -3.55271e-015 0 -39.6749 -2.80327 2.6451 3.6982 0 0 -95.2415 -6.38928 5.83099 2.9509 0 0 -50.9569 -2.16649 4.5447 9.1045 -0.0439 -1.8651 -39.6805 -2.80955 4.10363 3.154 7.10543e-015 0 -112.738 -8.10918 5.39906 2.9377 7.10543e-015 -3.55271e-015 -62.7352 -3.17331 5.20309 8.0778 -0.4887 -3.8061 -45.2613 -9.07379 3.70033 3.6 0 5.32907e-015 -84.4662 -5.2916 5.82817 2.1142 -1.42109e-014 -1.77636e-015 -118.594 -8.6439 5.13933 -4.57 10.9462 -2.628 1.70995 1.48805 11.3637 -10.5928 -0.5248 -2.2321 37.6882 6.60492 59.6156 -27.8415 0 -1.42109e-014 -3.51406e-005 -1.10285e-005 72.7559 -28.3288 0 0.0001 -2.23426 -10.6017 10.7149 -8.0767 -0.4885 -3.806 44.7284 -8.61531 -2.74384 -3.6 0 0.0001 84.6743 -4.21328 -4.62546 -2.1142 0 0 118.833 -6.87902 -4.06873 -9.1036 -0.0439 -1.8651 39.0499 -2.43995 -3.23941 -3.154 1.42109e-014 0 112.98 -6.45457 -4.27631 -2.9377 0 0 62.8855 -2.52845 -4.1342 -9.5325 -7.10543e-015 0 39.0138 -2.43242 -1.78259 -3.6982 -7.10543e-015 0 95.4704 -5.08796 -4.62451 -2.9509 7.10543e-015 1.42109e-014 51.0734 -1.7264 -3.6146 -9.1083 -0.5168 2.2601 45.088 -1.76924 -1.57656 -3.6764 -1.42109e-014 -1.42109e-014 87.7094 -4.46022 -4.64199 -2.8831 -1.42109e-014 -1.42109e-014 50.8136 -1.71003 -3.59929 -2.4648 -1.5727 2.6826 7.22013 -5.53917 14.5729 -3.2298 -1.8647 1.8647 -2.8354 12.5798 -43.9355 -2.6526 -1.5314 1.5314 -28.1821 6.87896 -12.8222 8.2078 -6.7517 -1.5996 12.83 -58.2139 24.714 -3.55271e-015 -44.3705 0.2846 -13.1173 68.2164 14.0357 3.55271e-015 -44.4279 -2.9822 12.5588 -11.0716 10.5729 0 -8.7287 10.7106 4.67058e-006 -0.640459 -1.94924e-006 -8.2078 -6.7517 -1.5996 -34.7102 -32.7498 -5.4393 0 -44.3705 0.2862 -74.2237 79.7654 63.854 0 -44.4277 -2.9838 23.4844 -11.5348 -12.6931 1.42109e-014 -8.7287 10.7106 3.71976e-008 1.88418 1.45342e-005 
-11.3831 80.8168 -99.4169 9.13672 1.28328 -32.2045 0 10.1816 0.1315 6.37145 11.1266 1.71509 0 10.0835 -1.0008 1.69137 2.17387 0.412186 0 9.1 -1.3734 1.68825 2.17068 0.444412 -7.10543e-015 16.6717 -2.5162 1.9287 3.63997 2.00288 0 9.6179 1.685 -18.5281 -16.563 17.2999 0 17.8152 2.585 -8.94531e-016 0 -0 3.0676 6.4095 9.2836 -8.94531e-016 0 -0 -3.0676 6.4095 9.2835 -8.94531e-016 0 -0 4.5704 10.946 -2.628 -10.4963 3.79964 -17.6413 10.5924 -0.5246 -2.2321 -41.3278 6.74447 -4.32279 27.8415 -0.0001 0 -0.000205933 -8.48075e-007 -41.964 28.3288 0 -1.77636e-015 3.29012 -20.8057 -12.3967 2.4661 -1.575 2.6824 -6.63196 -4.74548 -12.3323 3.2298 -1.8647 1.8647 2.55316 12.2142 42.1049 2.6526 -1.5315 1.5315 27.259 3.36613 7.40136 9.1093 -0.5171 2.2601 -45.759 -2.23587 2.52046 3.6764 0 0 -87.4947 -5.59999 5.84994 2.8831 0 3.55271e-015 -50.6978 -2.14594 4.52794 9.5334 7.10543e-015 -3.55271e-015 -39.6749 -2.80327 2.6451 3.6982 -7.10543e-015 0 -95.2415 -6.38928 5.83099 2.9509 1.42109e-014 1.77636e-015 -50.9569 -2.16649 4.5447 9.1045 -0.0439 -1.8651 -39.6805 -2.80955 4.10363 3.154 0 3.55271e-015 -112.738 -8.10918 5.39906 2.9377 -2.13163e-014 1.77636e-015 -62.7352 -3.17331 5.20309 8.0778 -0.4887 -3.8061 -45.2613 -9.07379 3.70033 3.6 -7.10543e-015 0 -84.4662 -5.2916 5.82817 2.1142 -1.42109e-014 3.55271e-015 -118.594 -8.6439 5.13933 -4.57 10.9462 -2.628 2.24907 1.42591 10.106 -10.5928 -0.5248 -2.2321 35.4195 5.81141 59.7483 -27.8415 0 -7.10543e-015 -1.49497e-005 -5.23599e-006 75.936 -28.3288 -1.42109e-014 0.0001 -2.37313 -11.0839 10.4561 -8.0767 -0.4885 -3.806 44.7284 -8.61531 -2.74384 -3.6 -1.42109e-014 0.0001 84.6743 -4.21328 -4.62546 -2.1142 7.10543e-015 1.42109e-014 118.833 -6.87902 -4.06873 -9.1036 -0.0439 -1.8651 39.0499 -2.43995 -3.23941 -3.154 0 -1.42109e-014 112.98 -6.45457 -4.27631 -2.9377 0 1.42109e-014 62.8855 -2.52845 -4.1342 -9.5325 7.10543e-015 2.84217e-014 39.0138 -2.43242 -1.78259 -3.6982 7.10543e-015 1.42109e-014 95.4704 -5.08796 -4.62451 -2.9509 0 1.42109e-014 51.0734 -1.7264 -3.6146 -9.1083 -0.5168 2.2601 45.088 -1.76924 -1.57656 -3.6764 -7.10543e-015 0 87.7094 -4.46022 -4.64199 -2.8831 0 -1.42109e-014 50.8136 -1.71003 -3.59929 -2.4648 -1.5727 2.6826 7.22013 -5.53917 14.5729 -3.2298 -1.8647 1.8647 -2.8354 12.5798 -43.9355 -2.6526 -1.5314 1.5314 -28.1821 6.87896 -12.8222 8.2078 -6.7517 -1.5996 22.4405 -61.2533 31.0258 -7.10543e-015 -44.3705 0.2846 -10.9754 67.4624 12.1022 0 -44.4279 -2.9822 9.91131 -6.85161 9.99829 0 -8.7287 10.7106 2.74573e-006 -0.147753 -2.09174e-007 -8.2078 -6.7517 -1.5996 -32.7615 -20.6397 -3.34057 0 -44.3705 0.2862 -29.2718 69.6902 17.8018 0 -44.4277 -2.9838 26.9416 -14.8526 -8.94631 -2.84217e-014 -8.7287 10.7106 1.02032e-005 -3.17736 -1.02094e-005 
-12.282 79.5172 -104.753 8.71077 3.38495 -34.9521 -7.10543e-015 10.1816 0.1315 6.16337 9.94542 3.82768 -7.10543e-015 10.0835 -1.0008 1.76944 2.04329 0.716141 -7.10543e-015 9.1 -1.3734 1.76979 2.03434 0.746502 -7.10543e-015 16.6717 -2.5162 2.22248 3.84256 1.97898 -7.10543e-015 9.6179 1.685 -18.0931 -17.1751 17.6794 0 17.8152 2.585 -7.45443e-016 -7.95139e-016 -7.95139e-016 3.0676 6.4095 9.2836 -7.45443e-016 -7.95139e-016 -7.95139e-016 -3.0676 6.4095 9.2835 -7.45443e-016 -7.95139e-016 -7.95139e-016 4.5704 10.946 -2.628 -11.2819 3.58903 -15.7412 10.5924 -0.5246 -2.2321 -45.8292 2.06368 -0.0370025 27.8415 -0.0001 0 -0.000218506 1.08772e-005 -41.47 28.3288 1.42109e-014 3.55271e-015 3.98714 -22.2762 -12.6365 2.4661 -1.575 2.6824 -6.63196 -4.74548 -12.3323 3.2298 -1.8647 1.8647 2.55316 12.2142 42.1049 2.6526 -1.5315 1.5315 27.259 3.36613 7.40136 9.1093 -0.5171 2.2601 -45.759 -2.23587 2.52046 3.6764 0 0 -87.4947 -5.59999 5.84994 2.8831 0 3.55271e-015 -50.6978 -2.14594 4.52794 9.5334 -7.10543e-015 -3.55271e-015 -39.6749 -2.80327 2.6451 3.6982 -7.10543e-015 -3.55271e-015 -95.2415 -6.38928 5.83099 2.9509 -1.42109e-014 3.55271e-015 -50.9569 -2.16649 4.5447 9.1045 -0.0439 -1.8651 -39.6805 -2.80955 4.10363 3.154 -1.42109e-014 -7.10543e-015 -112.738 -8.10918 5.39906 2.9377 -7.10543e-015 5.32907e-015 -62.7352 -3.17331 5.20309 8.0778 -0.4887 -3.8061 -45.2613 -9.07379 3.70033 3.6 0 0 -84.4662 -5.2916 5.82817 2.1142 1.42109e-014 1.42109e-014 -118.594 -8.6439 5.13933 -4.57 10.9462 -2.628 3.81387 1.47079 8.90119 -10.5928 -0.5248 -2.2321 34.7797 5.69621 59.2631 -27.8415 0 7.10543e-015 3.31316e-005 8.87913e-006 77.8632 -28.3288 0 0.0001 -0.837218 -11.3576 10.6975 -8.0767 -0.4885 -3.806 44.7284 -8.61531 -2.74384 -3.6 -7.10543e-015 0.0001 84.6743 -4.21328 -4.62546 -2.1142 0 -1.42109e-014 118.833 -6.87902 -4.06873 -9.1036 -0.0439 -1.8651 39.0499 -2.43995 -3.23941 -3.154 0 0 112.98 -6.45457 -4.27631 -2.9377 -1.42109e-014 0 62.8855 -2.52845 -4.1342 -9.5325 7.10543e-015 0 39.0138 -2.43242 -1.78259 -3.6982 0 0 95.4704 -5.08796 -4.62451 -2.9509 0 0 51.0734 -1.7264 -3.6146 -9.1083 -0.5168 2.2601 45.088 -1.76924 -1.57656 -3.6764 2.13163e-014 0 87.7094 -4.46022 -4.64199 -2.8831 7.10543e-015 -1.42109e-014 50.8136 -1.71003 -3.59929 -2.4648 -1.5727 2.6826 7.22013 -5.53917 14.5729 -3.2298 -1.8647 1.8647 -2.8354 12.5798 -43.9355 -2.6526 -1.5314 1.5314 -28.1821 6.87896 -12.8222 8.2078 -6.7517 -1.5996 34.3778 -63.6253 39.3887 -3.55271e-015 -44.3705 0.2846 -7.92158 66.0784 9.63097 3.55271e-015 -44.4279 -2.9822 6.82581 -2.12812 9.80721 0 -8.7287 10.7106 -3.04136e-006 0.00550745 2.07805e-006 -8.2078 -6.7517 -1.5996 -30.6187 -16.6864 -5.2552 0 -44.3705 0.2862 -19.5239 59.6409 7.18424 1.42109e-014 -44.4277 -2.9838 31.3894 -26.199 -4.72791 2.84217e-014 -8.7287 10.7106 0.890937 -8.64704 0.125915 
-12.4891 78.954 -109.902 9.07529 5.35372 -38.7377 1.42109e-014 10.1816 0.1315 6.27472 9.39736 5.7414 -7.10543e-015 10.0835 -1.0008 1.99037 1.90884 1.00021 7.10543e-015 9.1 -1.3734 1.99192 1.89238 1.03592 0 16.6717 -2.5162 1.27034 4.17525 2.29434 -1.42109e-014 9.6179 1.685 -19.1395 -18.9244 18.4987 0 17.8152 2.585 -3.97569e-016 -7.95139e-016 -7.95139e-016 3.0676 6.4095 9.2836 -3.97569e-016 -7.95139e-016 -7.95139e-016 -3.0676 6.4095 9.2835 -3.97569e-016 -7.95139e-016 -7.95139e-016 4.5704 10.946 -2.628 -12.7468 3.64795 -14.7656 10.5924 -0.5246 -2.2321 -47.753 -2.97587 2.50731 27.8415 -0.0001 1.42109e-014 -0.000215532 1.32847e-005 -40.8456 28.3288 1.42109e-014 0 5.22401 -26.4485 -11.3232 2.4661 -1.575 2.6824 -6.63196 -4.74548 -12.3323 3.2298 -1.8647 1.8647 2.55316 12.2142 42.1049 2.6526 -1.5315 1.5315 27.259 3.36613 7.40136 9.1093 -0.5171 2.2601 -45.759 -2.23587 2.52046 3.6764 0 -7.10543e-015 -87.4947 -5.59999 5.84994 2.8831 0 0 -50.6978 -2.14594 4.52794 9.5334 -1.06581e-014 -7.10543e-015 -39.6749 -2.80327 2.6451 3.6982 7.10543e-015 0 -95.2415 -6.38928 5.83099 2.9509 -1.42109e-014 0 -50.9569 -2.16649 4.5447 9.1045 -0.0439 -1.8651 -39.6805 -2.80955 4.10363 3.154 0 3.55271e-015 -112.738 -8.10918 5.39906 2.9377 -1.42109e-014 3.55271e-015 -62.7352 -3.17331 5.20309 8.0778 -0.4887 -3.8061 -45.2613 -9.07379 3.70033 3.6 -7.10543e-015 0 -84.4662 -5.2916 5.82817 2.1142 0 -3.55271e-015 -118.594 -8.6439 5.13933 -4.57 10.9462 -2.628 5.13867 1.56384 8.49671 -10.5928 -0.5248 -2.2321 35.801 6.52031 59.4326 -27.8415 0 7.10543e-015 -2.97209e-005 3.93284e-006 77.0436 -28.3288 0 0.0001 1.12655 -11.5581 11.6902 -8.0767 -0.4885 -3.806 44.7284 -8.61531 -2.74384 -3.6 7.10543e-015 0.0001 84.6743 -4.21328 -4.62546 -2.1142 -7.10543e-015 0 118.833 -6.87902 -4.06873 -9.1036 -0.0439 -1.8651 39.0499 -2.43995 -3.23941 -3.154 -7.10543e-015 1.42109e-014 112.98 -6.45457 -4.27631 -2.9377 0 -2.84217e-014 62.8855 -2.52845 -4.1342 -9.5325 0 0 39.0138 -2.43242 -1.78259 -3.6982 0 2.84217e-014 95.4704 -5.08796 -4.62451 -2.9509 0 0 51.0734 -1.7264 -3.6146 -9.1083 -0.5168 2.2601 45.088 -1.76924 -1.57656 -3.6764 -7.10543e-015 0 87.7094 -4.46022 -4.64199 -2.8831 0 0 50.8136 -1.71003 -3.59929 -2.4648 -1.5727 2.6826 7.22013 -5.53917 14.5729 -3.2298 -1.8647 1.8647 -2.8354 12.5798 -43.9355 -2.6526 -1.5314 1.5314 -28.1821 6.87896 -12.8222 8.2078 -6.7517 -1.5996 45.5041 -63.5682 47.8344 0 -44.3705 0.2846 -6.09175 62.221 9.13785 0 -44.4279 -2.9822 4.47675 3.19323 9.28819 0 -8.7287 10.7106 -5.68151e-006 0.0481284 8.65043e-006 -8.2078 -6.7517 -1.5996 -31.2634 -20.8027 -9.53271 0 -44.3705 0.2862 -16.1853 58.8007 4.69479 0 -44.4277 -2.9838 34.8876 -34.7333 2.15326 0 -8.7287 10.7106 -4.00272e-006 -4.09009 5.17808e-006 
